<?xml version="1.0" encoding="UTF-8" standalone="no"?>
<svg xmlns:rdf="http://www.w3.org/1999/02/22-rdf-syntax-ns#" xmlns="http://www.w3.org/2000/svg" xml:space="preserve" height="22.441" viewBox="0 0 163.74675 22.44087" width="163.75" version="1.1" xmlns:cc="http://creativecommons.org/ns#" xmlns:dc="http://purl.org/dc/elements/1.1/"><g transform="matrix(1.25 0 0 -1.25 -509.69 505.65)"><path d="m62.848 0.9707c-1.001 0.375-2.719 0.6582-4 0.6582v0.6875c2.062 0 2.062 0.7181 2.062 2.9063v11.408c0 3.469 0.001 3.594-2.187 3.594v0.687h6.343v-0.687c-1.969 0-1.968-0.25-1.968-3.594v-5.031c1-1.282 2.374-2.7523 3.812-2.7523 1.844 0 2.719 0.8434 2.719 3.7503v4.033c0 3.438 0 3.594-2.156 3.594v0.687h6.47v-0.687c-2.125 0-2.125-0.156-2.125-3.594v-4.406c0-2.8448-1.407-4.3148-4.189-4.3148-1.625 0-3 0.9371-4.563 2.5938v-9.5333h-0.218zm-61.538 0.2813v0.6875c2.8441 0 3.0625 0.2822 3.0625 4.2519v10.721c0 1.751 0.0629 3.156-3.3437 3.313v0.687h7.7187v-0.687c-3.1884-0.095-3.625-1.25-3.625-3.313v-14.002l13.846 18.471h0.437v-16.252c0-1.8442 0.187-2.9083 3.219-3.1895v-0.6875h-7.5v0.6875c3.313 0.0316 3.531 1.3141 3.531 2.9707v11.908l-11.72-15.566h-5.6255zm51.566 3.2519c-0.469 2.9381-2.125 3.8434-3.5 3.9063v0.6875h1.812v8.0953c0 1.844 0.375 3 1.188 3.625 0.5 0.406 1.189 0.594 2.064 0.594 0.219 0 2.219 0 3.188-2.031l-0.469-0.281c-0.281 0.406-0.843 1.25-1.906 1.25-1.875 0-1.875-1.969-1.875-3.688v-7.5643h3.781v-0.6875h-3.781v-3.9063h-0.502zm63.833 0c-0.47 2.9381-2.13 3.8435-3.5 3.9063v0.6875h1.81v8.0953c0 1.844 0.37 3 1.19 3.625 0.5 0.406 1.18 0.594 2.06 0.594 0.22 0 2.22 0 3.19-2.031l-0.47-0.281c-0.28 0.406-0.84 1.25-1.91 1.25-1.87 0-1.87-1.969-1.87-3.688v-7.5643h3.78v-0.6875h-3.78v-3.9063h-0.5zm-87.71 3.4063c-3.719 0-6.656 2.8448-6.656 6.7208 0 4.625 3.437 6.781 6.656 6.781 3.344 0 6.689-2.312 6.689-6.75 0-3.969-3.001-6.7518-6.689-6.7518zm11.658 0l-0.219 0.0625c-0.5 0.1562-2.126 0.6562-3.533 0.8437v0.6875c2.157 0 2.158 0.1263 2.158 3.5961v3.531c0 3.469-0.001 3.594-2.158 3.594v0.687h6.627v-0.687h-0.437c-1.844 0-1.844-0.406-1.844-3.594v-2.938c0-3.188 2.437-4.6891 3.687-4.6891 0.719 0 0.969 0.5938 1.094 0.9375 0.188 0.5316 0.531 0.9996 1.219 0.9996 0.657 0 1.064-0.562 1.064-1.1246 0-0.75-0.783-1.9062-2.408-1.9062-1.594 0-3.843 0.9681-4.812 3.2808 0-1.7812-0.282-2.7808-0.438-3.2808zm40.067 0c-3.751 0-6.284 2.9698-6.284 6.8458 0 4.031 2.908 6.656 6.409 6.656 2.531 0 4.375-1.25 5.156-3.312h-0.719c-0.875 1.719-2.281 2.5-4.031 2.5-3.032 0-4.281-2.501-4.281-6.471 0-0.219 0.031-0.656 0.062-0.938h9.094c-0.094-2.969-1.875-5.2808-5.406-5.2808zm12.845 0c-3.125 0-5.033 1.5937-5.033 2.8438 0 0.563 0.344 0.906 0.844 0.906 0.813 0 1.125-0.594 1.312-1.281 0.219-0.8442 0.69-1.7813 2.69-1.7813 2.344 0 2.625 1.4993 2.625 3.3433v0.782l-2.375 0.812c-4.407 1.501-5.752 3.252-5.752 5.033 0 1.782 1.406 2.657 3.219 2.657 1.5 0 3.064-0.625 4.908-2.188 0.156 0.75 0.562 2.188 2.394 2.188 1.718 0 2.468-1.187 2.528-2.594h-0.56c-0.25 1.467-0.888 1.557-1.263 1.557-0.969 0-0.986-0.687-0.986-2.838v-5.065c0-1.844-0.237-4.3748-4.551-4.3748zm12.67 0c-2.81 0-4 1.875-4 3.4688 0 2.188 1.28 3.096 4.15 4.158 1.97 0.719 3.6 1.438 3.6 2.969 0 0.625-0.31 2.219-2.91 2.219-2.87 0-3.97-2.031-4.28-3.532h-0.59v4.094h0.59c0.06-0.281 0.34-0.937 0.66-1.281 0.72 0.688 1.81 1.406 3.65 1.406 2.85 0 4.38-1.562 4.38-3.687 0-2.501-1.91-3.532-4.41-4.407-2.28-0.812-3.47-1.345-3.47-2.814 0-0.9063 0.69-1.9063 2.72-1.9063 2.22 0 3.47 1.9683 3.75 3.4063h0.56v-3.8751h-0.56c-0.03 0.0625-0.34 0.8122-0.59 1.0938-0.72-0.7191-1.78-1.3125-3.25-1.3125zm22.22 0c-3.75 0-6.28 2.9698-6.28 6.8458 0 4.031 2.9 6.656 6.4 6.656 2.54 0 4.38-1.25 5.16-3.312h-0.72c-0.87 1.719-2.28 2.5-4.03 2.5-3.03 0-4.28-2.501-4.28-6.471 0-0.219 0.03-0.656 0.06-0.938h9.1c-0.1-2.969-1.88-5.2808-5.41-5.2808zm10.53 0l-0.22 0.0625c-0.5 0.1562-2.12 0.6562-3.53 0.8437v0.6875c2.16 0 2.16 0.1263 2.16 3.5961v3.531c0 3.469 0 3.594-2.16 3.594v0.687h6.63v-0.687h-0.44c-1.84 0-1.85-0.406-1.85-3.594v-2.938c0-3.188 2.44-4.6891 3.69-4.6891 0.72 0 0.97 0.5938 1.1 0.9375 0.18 0.5316 0.53 0.9996 1.22 0.9996 0.65 0 1.06-0.562 1.06-1.1246 0-0.75-0.78-1.9062-2.41-1.9062-1.59 0-3.84 0.9681-4.81 3.2808 0-1.7811-0.28-2.7808-0.44-3.2808zm12.19 0c-0.53 0.2187-2.16 0.5309-3.44 0.7187v0.6875c2.07 0 2.06 0.1872 2.06 3.5936v3.721c0 3.407 0.01 3.594-2.06 3.594v0.687h6.31v-0.687c-2.06 0-2.06-0.219-2.06-3.594v-5.096c1.07-1.187 2.22-2.6873 4-2.6873 1.53 0 2.54 0.9059 2.54 3.7503v4.033c0 3.407-0.01 3.594-2.16 3.594v0.687h6.41v-0.687c-2.07 0-2.07-0.187-2.07-3.594v-4.627c0-2.0942-1.03-4.0938-3.9-4.0938-1.82 0-3.22 0.8437-4.82 2.5938-0.03-0.6563-0.15-1.8748-0.4-2.5938h-0.41zm-70.518 0.6875c2.688 0 3.094 2.4993 3.125 3.9683h-6.687c0.156-1.719 1.093-3.9683 3.562-3.9683zm47.738 0c2.68 0 3.09 2.4993 3.12 3.9683h-6.69c0.16-1.719 1.1-3.9683 3.57-3.9683zm-99.4 0.0625c3.251 0 4.158 2.7198 4.158 6.0958 0 3.938-1.282 5.906-4.158 5.906-2.844 0-4.125-1.937-4.125-5.937 0-3.407 0.968-6.0648 4.125-6.0648zm67.008 4.7828v4.899c-1.258 1.089-2.959 1.953-4.115 1.953-1.326 0-1.971-0.96-1.971-2.113 0-1.729 1.631-3.298 4.283-4.162l1.803-0.577z" transform="matrix(.8 0 0 -.8 407.75 404.52)" fill="#c00"/></g></svg>
