<svg width="254" height="42" viewBox="0 0 254 42" xmlns="http://www.w3.org/2000/svg">
  <g id="g58" transform="matrix(1.3333333,0,0,-1.3333333,0,816)">
    <g id="g7428">
      <g id="g8168">
        <path id="path112" style="fill:#d41736" d="M 10.520508 610.65236 C 5.9076268 610.59956 2.269043 607.43843 2.269043 603.30031 C 2.269043 598.45799 6.1526687 596.65647 10.041504 595.2964 C 13.150074 594.21857 14.515137 593.54844 14.515137 591.65626 C 14.515137 590.06622 13.275085 588.93605 10.817871 588.93605 C 9.3612623 588.93605 7.6724597 589.46588 6.1215822 590.59425 L 6.1215822 593.05519 L 4.6933595 591.6255 L 4.6933595 591.62404 L 1.4106446 588.34132 C 4.1023912 585.59678 7.4456969 584.33791 10.731446 584.33791 C 14.936588 584.33791 19.83252 586.63678 19.83252 592.25539 C 19.83252 597.20274 16.316484 598.37044 11.881348 600.09962 L 11.881348 600.10109 C 8.9312163 601.25048 7.5325297 601.92603 7.5512697 603.53029 C 7.5660347 605.15897 8.8728177 606.11134 10.640625 606.11134 C 11.759347 606.11134 13.000393 605.73636 14.370118 604.9175 L 14.370118 602.72902 L 15.672364 604.03273 C 15.674664 604.03073 15.677988 604.03034 15.679688 604.02834 L 19.117676 607.46632 C 16.622416 609.50672 13.67678 610.69041 10.520508 610.65236 z M 53.302736 610.65236 C 48.689853 610.59956 45.049806 607.43843 45.049806 603.30031 C 45.049806 598.45799 48.934897 596.65647 52.823732 595.2964 C 55.932302 594.21857 57.297365 593.54844 57.297365 591.65626 C 57.297365 590.06622 56.057313 588.93605 53.600099 588.93605 C 52.144057 588.93605 50.454687 589.46588 48.90381 590.59425 L 48.90381 593.05519 L 47.475587 591.6255 L 47.475587 591.62404 L 44.192872 588.34132 C 46.88462 585.59678 50.227924 584.33791 53.513673 584.33791 C 57.718817 584.33791 62.613283 586.63678 62.613283 592.25539 C 62.613283 597.20274 59.09871 598.37044 54.663576 600.09962 L 54.663576 600.10109 C 51.712877 601.25048 50.314757 601.92603 50.333497 603.53029 C 50.348257 605.15897 51.655614 606.11134 53.422853 606.11134 C 54.542143 606.11134 55.782054 605.73636 57.152345 604.9175 L 57.152345 602.72902 L 58.454591 604.03273 C 58.456891 604.03073 58.458751 604.03034 58.460451 604.02834 L 61.899904 607.46632 C 59.404642 609.50672 56.459008 610.69041 53.302736 610.65236 z M 22.447266 610.35353 L 22.447266 610.35207 L 20.436036 610.35207 L 22.447266 608.3423 L 22.447266 586.65089 L 20.436036 584.63966 L 22.447266 584.63966 L 22.45752 584.63966 L 29.937012 584.63966 C 38.207602 584.63966 43.173341 589.87147 43.173341 597.45265 C 43.173341 605.052 37.959268 610.35353 29.830079 610.35353 L 22.447266 610.35353 z M 63.168459 610.35207 L 65.189943 608.33058 L 65.189943 595.27882 C 65.189943 588.26325 69.378628 584.34083 75.563967 584.34083 C 82.17351 584.34083 86.008303 588.5983 86.008303 595.27882 L 86.008303 610.35207 L 78.889162 610.35207 L 80.917971 608.32326 L 80.917971 595.61427 C 80.917971 591.51476 78.67424 589.11183 75.563967 589.11183 C 72.188493 589.11183 70.297853 591.92079 70.297853 595.61427 L 70.297853 610.35207 L 65.189943 610.35207 L 63.168459 610.35207 z M 27.465821 605.79347 L 29.935548 605.79347 C 34.566033 605.79347 37.888185 602.27736 37.888185 597.45265 C 37.888185 592.75232 34.618987 589.18214 29.617677 589.18214 L 27.465821 589.18214 L 27.465821 605.79347 z " />
        <path id="path204" style="fill:#000" d="M 138.23291 606.41164 C 137.98248 606.41164 137.79987 606.32994 137.68799 606.16408 C 137.57553 605.99826 137.51953 605.79713 137.51953 605.56203 C 137.51953 605.32579 137.59523 605.12622 137.74512 604.96437 C 137.89561 604.79854 138.08486 604.71535 138.31202 604.71535 C 138.53915 604.71135 138.72597 604.79455 138.87305 604.96437 C 139.02065 605.1336 139.09424 605.33472 139.09424 605.56642 C 139.09424 605.79868 139.01294 605.99826 138.85108 606.16408 C 138.68924 606.32991 138.48335 606.41164 138.23291 606.41164 z M 108.37061 605.91505 C 107.51028 605.91505 106.82171 605.70762 106.30664 605.2925 C 105.791 604.87057 105.53321 604.32998 105.53321 603.67238 C 105.53321 603.0142 105.74375 602.50826 106.16455 602.15334 C 106.58592 601.79898 107.1772 601.48991 107.93701 601.22755 C 108.69569 600.96576 109.2041 600.72967 109.46192 600.52296 C 109.72031 600.31568 109.84864 600.01628 109.84864 599.62501 C 109.84864 599.24058 109.70654 598.93394 109.4209 598.70509 C 109.13469 598.47623 108.74087 598.36232 108.2417 598.36232 C 107.18204 598.36632 106.45777 599.03619 106.06934 600.37355 L 105.45703 600.37355 L 105.54492 598.50001 C 105.83909 598.27288 106.22236 598.09106 106.69483 597.95363 C 107.16731 597.81676 107.67693 597.74855 108.22266 597.74855 C 109.07278 597.74855 109.77617 597.94935 110.33496 598.34914 C 110.90227 598.74949 111.18604 599.29958 111.18604 600.00148 C 111.18604 600.70394 110.97492 601.24019 110.55469 601.60988 C 110.13446 601.97957 109.53401 602.29527 108.75147 602.55763 C 107.97234 602.81999 107.46271 603.05494 107.22364 603.26222 C 106.98853 603.46893 106.87061 603.75204 106.87061 604.11037 C 106.87061 604.46189 106.98608 604.74729 107.21778 604.96877 C 107.44947 605.19079 107.77672 605.30128 108.19922 605.30128 C 109.17825 605.30128 109.83119 604.69584 110.15772 603.48341 L 110.70557 603.48341 L 110.70557 605.21779 C 110.00935 605.68231 109.23095 605.91505 108.37061 605.91505 z M 165.09961 605.91505 C 164.23928 605.91505 163.55128 605.70762 163.03565 605.2925 C 162.52001 604.87057 162.26221 604.32998 162.26221 603.67238 C 162.26221 603.0142 162.47276 602.50826 162.89356 602.15334 C 163.31493 601.79898 163.90619 601.48991 164.66602 601.22755 C 165.4247 600.96576 165.9331 600.72967 166.19092 600.52296 C 166.44874 600.31568 166.57764 600.01628 166.57764 599.62501 C 166.57764 599.24058 166.43555 598.93394 166.14991 598.70509 C 165.8637 598.47623 165.47134 598.36232 164.97217 598.36232 C 163.91251 598.36632 163.18734 599.03619 162.79834 600.37355 L 162.18604 600.37355 L 162.27393 598.50001 C 162.56866 598.27288 162.95192 598.09106 163.42383 597.95363 C 163.89631 597.81676 164.40593 597.74855 164.95166 597.74855 C 165.80178 597.74855 166.50607 597.94935 167.06543 598.34914 C 167.63217 598.74949 167.91504 599.29958 167.91504 600.00148 C 167.91504 600.70394 167.70539 601.24019 167.28516 601.60988 C 166.86493 601.97957 166.26301 602.29527 165.48047 602.55763 C 164.70134 602.81999 164.19171 603.05494 163.95264 603.26222 C 163.71753 603.46893 163.59961 603.75204 163.59961 604.11037 C 163.59961 604.46189 163.71508 604.74729 163.94678 604.96877 C 164.17847 605.19079 164.50516 605.30128 164.92823 605.30128 C 165.90726 605.30128 166.56166 604.69584 166.88819 603.48341 L 167.43457 603.48341 L 167.43457 605.21779 C 166.73837 605.68231 165.95995 605.91505 165.09961 605.91505 z M 128.02149 605.80373 L 128.02149 605.25734 C 128.42639 605.24594 128.70785 605.18934 128.86231 605.08595 C 129.01678 604.98317 129.09375 604.77295 129.09375 604.45607 L 129.09375 599.21779 C 129.09375 598.90091 129.01675 598.68881 128.86231 598.58205 C 128.70785 598.47526 128.42639 598.41521 128.02149 598.40041 L 128.02149 597.85841 L 131.80518 597.85841 C 133.01135 597.85841 133.99744 598.22726 134.76123 598.96437 C 135.52503 599.70091 135.90674 600.72057 135.90674 602.02443 C 135.90274 603.14429 135.53259 604.05527 134.79493 604.7549 C 134.05668 605.4551 132.98076 605.80373 131.56787 605.80373 L 128.02149 605.80373 z M 170.12256 605.26906 C 169.61147 604.55864 169.02541 604.02872 168.36329 603.68117 L 168.36329 603.25636 L 169.16456 603.25636 L 169.16456 599.22072 C 169.16456 598.23886 169.66141 597.74855 170.65577 597.74855 C 171.41105 597.74855 172.02182 597.98505 172.48975 598.45753 L 172.3462 598.80177 C 172.0367 598.64109 171.72411 598.56007 171.40723 598.56007 C 171.09035 598.56007 170.86628 598.62387 170.7334 598.7505 C 170.60104 598.8777 170.53418 599.09137 170.53418 599.39064 L 170.53418 603.25636 L 172.18653 603.25636 L 172.18653 603.9258 L 170.53418 603.9258 L 170.53418 605.26906 L 170.12256 605.26906 z M 180.73096 605.26906 C 180.21987 604.55864 179.63326 604.02872 178.97168 603.68117 L 178.97168 603.25636 L 179.77295 603.25636 L 179.77295 599.22072 C 179.77295 598.23886 180.26925 597.74855 181.26416 597.74855 C 182.01944 597.74855 182.63022 597.98505 183.09815 598.45753 L 182.95459 598.80177 C 182.64509 598.64109 182.33251 598.56007 182.01563 598.56007 C 181.69875 598.56007 181.47468 598.62387 181.3418 598.7505 C 181.20944 598.8777 181.14258 599.09137 181.14258 599.39064 L 181.14258 603.25636 L 182.79493 603.25636 L 182.79493 603.9258 L 181.14258 603.9258 L 181.14258 605.26906 L 180.73096 605.26906 z M 130.53076 605.19142 L 131.31446 605.19142 C 132.32358 605.19142 133.0797 604.87392 133.58057 604.24074 C 134.08144 603.61039 134.33203 602.77597 134.33203 601.73732 C 134.33203 600.69867 134.10839 599.89643 133.6626 599.32912 C 133.21341 598.76181 132.58576 598.47518 131.77881 598.47218 L 131.57373 598.47218 C 131.187 598.46818 130.91667 598.52108 130.76221 598.63185 C 130.60715 598.74202 130.53076 598.95657 130.53076 599.27345 L 130.53076 605.19142 z M 120.01612 604.0591 L 118.2041 603.47316 L 118.2041 603.19044 L 118.95996 602.70412 L 118.95996 599.01418 C 118.95996 598.84836 118.92386 598.71985 118.8501 598.63185 C 118.7763 598.54325 118.69062 598.4841 118.59522 598.4546 C 118.49922 598.4251 118.35118 598.39621 118.14844 598.36671 L 118.14844 597.85841 L 121.12061 597.85841 L 121.12061 598.36671 C 120.82985 598.40701 120.62495 598.46431 120.50684 598.5381 C 120.38872 598.6114 120.33106 598.77113 120.33106 599.01418 L 120.33106 602.56642 C 120.79162 602.89011 121.28412 603.05275 121.81055 603.05275 C 122.14219 603.05275 122.38459 602.97635 122.53565 602.8213 C 122.68673 602.66684 122.76123 602.41625 122.76123 602.06984 L 122.76123 599.01418 C 122.75723 598.76715 122.69713 598.60701 122.57959 598.53371 C 122.46147 598.45991 122.25469 598.40361 121.95996 598.36671 L 121.95996 597.85841 L 124.94971 597.85841 L 124.94971 598.36671 C 124.6476 598.40701 124.4355 598.46431 124.31397 598.5381 C 124.19248 598.6114 124.13233 598.77113 124.13233 599.01418 L 124.13233 602.1797 C 124.13233 603.41768 123.58831 604.03566 122.50196 604.03566 C 121.77962 604.03566 121.05625 603.6586 120.33106 602.90334 L 120.33106 604.0591 L 120.01612 604.0591 z M 155.98829 604.03712 C 155.13534 604.03712 154.42817 603.73372 153.86426 603.12892 C 153.30433 602.52413 153.02344 601.76135 153.02344 600.84084 C 153.02344 599.91974 153.28459 599.17417 153.8042 598.60402 C 154.32722 598.03387 155.01431 597.74855 155.8667 597.74855 C 156.71909 597.74855 157.42993 598.04585 157.99952 598.6421 C 158.56456 599.23781 158.84766 600.0018 158.84766 600.93312 C 158.84766 601.86217 158.58576 602.61273 158.06104 603.18459 C 157.53234 603.75245 156.84066 604.03712 155.98829 604.03712 z M 114.5669 604.03566 C 113.88204 604.03966 113.32426 603.90861 112.89551 603.64455 C 112.46619 603.38048 112.25244 603.0122 112.25244 602.53859 C 112.25644 602.23761 112.37402 602.01519 112.60401 601.87209 L 113.66748 602.0215 C 113.61578 602.23956 113.58985 602.45445 113.58985 602.66457 C 113.58585 603.19611 113.85932 603.46144 114.41016 603.46144 C 115.05641 603.45744 115.37989 603.04415 115.37989 602.22072 L 115.37989 601.62306 L 113.59278 600.9756 C 113.11236 600.81319 112.73342 600.61173 112.45459 600.37209 C 112.17633 600.13187 112.03711 599.78054 112.03711 599.31886 C 112.03711 598.85433 112.16766 598.47828 112.43116 598.19093 C 112.69463 597.90301 113.0676 597.7588 113.5503 597.7588 C 114.22665 597.7588 114.8465 598.09882 115.41211 598.77687 C 115.56374 598.09144 115.91859 597.74855 116.47852 597.74855 C 116.94645 597.74855 117.37599 597.94436 117.76612 598.33449 L 117.7002 598.69777 C 117.53438 598.65007 117.36223 598.62746 117.18164 598.62746 C 116.87215 598.62746 116.71729 598.86439 116.71729 599.34084 L 116.74951 601.97169 C 116.74951 603.34824 116.02238 604.03566 114.5669 604.03566 z M 138.64161 604.03566 L 136.82959 603.47316 L 136.82959 603.20216 L 137.58692 602.72609 L 137.58692 599.01418 C 137.58692 598.84836 137.54942 598.72045 137.47559 598.63185 C 137.40179 598.54385 137.31757 598.48557 137.22217 598.45607 C 137.12617 598.42657 136.97666 598.39621 136.77393 598.36671 L 136.77393 597.85841 L 139.77393 597.85841 L 139.77393 598.36671 C 139.47182 598.40761 139.26118 598.46431 139.13965 598.5381 C 139.01816 598.6119 138.95655 598.77113 138.95655 599.01418 L 138.95655 604.03566 L 138.64161 604.03566 z M 143.45655 604.03566 C 142.64391 604.03566 141.95837 603.72594 141.39844 603.10695 C 140.84249 602.48852 140.56494 601.71945 140.56494 600.79835 C 140.56494 599.87045 140.82152 599.1302 141.33545 598.57765 C 141.84995 598.0251 142.5354 597.74855 143.39063 597.74855 C 144.04539 597.74855 144.59261 597.91348 145.03272 598.24513 C 145.47282 598.57677 145.76658 599.02736 145.91309 599.59865 L 145.66407 599.74806 C 145.18535 599.13646 144.58644 598.83107 143.86524 598.83107 C 143.26953 598.83107 142.79363 599.04072 142.43702 599.46095 C 142.08039 599.88061 141.90235 600.43373 141.90235 601.11916 L 145.90137 601.11916 L 145.90137 601.48976 C 145.90137 602.24447 145.69427 602.85771 145.28028 603.3296 C 144.8663 603.80094 144.2584 604.03566 143.45655 604.03566 z M 149.25293 604.03566 C 148.534 604.03566 147.94683 603.84951 147.49366 603.47755 C 147.04333 603.10218 146.81836 602.60156 146.81836 601.97462 C 146.81836 601.22447 147.15873 600.6747 147.83789 600.32375 C 147.11103 599.87455 146.74659 599.41661 146.74659 598.95265 C 146.74659 598.48869 146.98178 598.17077 147.44971 597.99757 C 146.7569 597.73237 146.40967 597.36485 146.40967 596.89748 C 146.40667 595.97638 147.32699 595.51613 149.1709 595.51613 C 150.09427 595.51613 150.86712 595.71481 151.49121 596.11232 C 152.11531 596.50984 152.42725 597.0342 152.42725 597.68556 C 152.42725 598.64471 151.8484 599.12404 150.68995 599.12404 L 148.07813 599.12404 C 147.82485 599.12704 147.69727 599.23472 147.69727 599.44484 C 147.69727 599.65495 147.8387 599.90309 148.12207 600.19044 C 148.46507 600.07574 148.82949 600.01906 149.21338 600.01906 C 149.94027 600.01606 150.52532 600.19647 150.96827 600.56105 C 151.41065 600.92506 151.6337 601.40062 151.6377 601.98781 C 151.6377 602.575 151.37613 603.02417 150.85254 603.33253 L 150.85254 603.39552 L 151.92334 603.16847 L 152.36573 603.16847 L 152.36573 603.98146 L 150.3003 603.85988 C 149.9698 603.97743 149.62035 604.03566 149.25293 604.03566 z M 175.66114 604.03566 C 174.97628 604.03966 174.4185 603.90861 173.98975 603.64455 C 173.561 603.38048 173.34668 603.0122 173.34668 602.53859 C 173.35068 602.23761 173.46679 602.01519 173.69678 601.87209 L 174.76172 602.0215 C 174.71012 602.23956 174.68409 602.45445 174.68409 602.66457 C 174.68009 603.19611 174.95356 603.46144 175.5044 603.46144 C 176.15065 603.45744 176.47413 603.04415 176.47413 602.22072 L 176.47413 601.62306 L 174.68702 600.9756 C 174.2066 600.81319 173.82766 600.61173 173.54883 600.37209 C 173.27057 600.13187 173.13135 599.78054 173.13135 599.31886 C 173.13135 598.85433 173.26191 598.47828 173.52539 598.19093 C 173.78888 597.90301 174.16273 597.7588 174.646 597.7588 C 175.32178 597.7588 175.94074 598.09882 176.50635 598.77687 C 176.65798 598.09144 177.0134 597.74855 177.57276 597.74855 C 178.04069 597.74855 178.47023 597.94436 178.86036 598.33449 L 178.79444 598.69777 C 178.62907 598.65017 178.45594 598.62756 178.27588 598.62746 C 177.96639 598.62746 177.81153 598.86439 177.81153 599.34084 L 177.84375 601.97169 C 177.84375 603.34824 177.11662 604.03566 175.66114 604.03566 z M 186.45557 604.03566 C 185.64293 604.03566 184.95593 603.72594 184.396 603.10695 C 183.84005 602.48852 183.5625 601.71945 183.5625 600.79835 C 183.5625 599.87045 183.82055 599.1302 184.33448 598.57765 C 184.84898 598.0251 185.53385 597.74855 186.38965 597.74855 C 187.04384 597.74855 187.59017 597.91348 188.03028 598.24513 C 188.47095 598.57677 188.76414 599.02736 188.91065 599.59865 L 188.66309 599.74806 C 188.18437 599.13646 187.584 598.83107 186.8628 598.83107 C 186.26709 598.83107 185.7912 599.04072 185.43457 599.46095 C 185.07796 599.88061 184.89991 600.43373 184.89991 601.11916 L 188.9004 601.11916 L 188.9004 601.48976 C 188.9004 602.24447 188.69385 602.85771 188.2793 603.3296 C 187.86532 603.80094 187.25742 604.03566 186.45557 604.03566 z M 149.13721 603.50539 C 149.50066 603.50539 149.78564 603.35618 149.99121 603.05861 C 150.19679 602.76048 150.3003 602.39318 150.3003 601.95705 C 150.3003 601.00755 149.96239 600.53136 149.28662 600.52736 C 148.94477 600.52736 148.67099 600.68066 148.46485 600.98732 C 148.25928 601.29738 148.15577 601.67744 148.15577 602.1255 C 148.15577 603.04546 148.48301 603.50539 149.13721 603.50539 z M 143.34082 603.42335 C 143.73777 603.42335 144.04094 603.26816 144.25049 602.95753 C 144.46003 602.6469 144.56543 602.22548 144.56543 601.69337 L 141.93457 601.69337 C 141.97887 602.18118 142.12373 602.59106 142.36963 602.92384 C 142.61949 603.25605 142.94387 603.42335 143.34082 603.42335 z M 186.33985 603.42335 C 186.7368 603.42335 187.03997 603.26816 187.24952 602.95753 C 187.45906 602.6469 187.56299 602.22548 187.56299 601.69337 L 184.9336 601.69337 C 184.9779 602.18118 185.12276 602.59106 185.36866 602.92384 C 185.61852 603.25605 185.9429 603.42335 186.33985 603.42335 z M 155.85645 603.36769 C 156.33233 603.36769 156.71503 603.11465 157.00635 602.61037 C 157.29768 602.1095 157.44434 601.49463 157.44434 600.7632 C 157.44734 600.03233 157.32851 599.45884 157.08545 599.04201 C 156.84183 598.62519 156.48175 598.41652 156.00586 598.41652 C 155.52998 598.41652 155.14681 598.66899 154.85889 599.17384 C 154.57098 599.67073 154.42823 600.28372 154.42823 601.01515 C 154.42823 601.74601 154.54648 602.32155 154.78272 602.73781 C 155.02236 603.15463 155.38057 603.36469 155.85645 603.36769 z M 115.37989 601.06935 L 115.37989 599.08156 C 115.00169 598.8192 114.65126 598.68751 114.32813 598.68751 C 113.71482 598.68751 113.40821 599.01198 113.40821 599.66164 C 113.40821 600.09039 113.62629 600.38734 114.06299 600.55373 L 115.37989 601.06935 z M 176.47413 601.06935 L 176.47413 599.08156 C 176.09593 598.8192 175.74403 598.68751 175.4209 598.68751 C 174.80759 598.68751 174.50098 599.01198 174.50098 599.66164 C 174.50098 600.09039 174.72053 600.38734 175.15723 600.55373 L 176.47413 601.06935 z M 147.66504 597.83644 L 150.48047 597.83644 C 150.76157 597.83644 150.97099 597.79474 151.11182 597.709 C 151.25204 597.6233 151.32276 597.46593 151.32276 597.23878 C 151.31976 596.86 151.12609 596.57347 150.74561 596.38039 C 150.36456 596.1867 149.85762 596.09035 149.22217 596.09035 C 148.03303 596.08735 147.43799 596.46586 147.43799 597.22853 C 147.43799 597.48123 147.51399 597.68368 147.66504 597.83644 z M 122.90479 593.30128 C 122.65436 593.30128 122.47377 593.21958 122.36133 593.05373 C 122.24887 592.88791 122.19287 592.68677 122.19287 592.45167 C 122.19287 592.21545 122.26857 592.01587 122.41846 591.85402 C 122.56952 591.68819 122.75819 591.605 122.98535 591.605 C 123.21307 591.601 123.39874 591.6842 123.54639 591.85402 C 123.69342 592.02325 123.76758 592.22437 123.76758 592.45607 C 123.76758 592.68833 123.68628 592.88791 123.52442 593.05373 C 123.36258 593.21956 123.1558 593.30128 122.90479 593.30128 z M 149.17237 593.30128 C 148.92194 593.30128 148.74079 593.21958 148.62891 593.05373 C 148.51645 592.88791 148.46045 592.68677 148.46045 592.45167 C 148.46045 592.21545 148.53615 592.01587 148.68604 591.85402 C 148.83653 591.68819 149.02577 591.605 149.25293 591.605 C 149.48008 591.601 149.66689 591.6842 149.81397 591.85402 C 149.96157 592.02325 150.03516 592.22437 150.03516 592.45607 C 150.03516 592.68833 149.95386 592.88791 149.792 593.05373 C 149.63016 593.21956 149.42281 593.30128 149.17237 593.30128 z M 105.11865 592.69337 L 105.11865 592.1631 C 105.52071 592.1523 105.80038 592.0947 105.95655 591.99025 C 106.11328 591.88633 106.19092 591.67512 106.19092 591.35597 L 106.19092 587.44923 C 106.18792 586.51961 106.46783 585.82008 107.03174 585.35158 C 107.59507 584.88307 108.3544 584.64845 109.30957 584.64845 C 110.26475 584.64845 111.03462 584.88742 111.6167 585.3633 C 112.19878 585.83862 112.48975 586.52816 112.48975 587.43166 L 112.48975 591.35597 C 112.48975 591.67512 112.56825 591.88633 112.72266 591.99025 C 112.87769 592.09479 113.15278 592.1523 113.5503 592.1631 L 113.5503 592.69337 L 110.6001 592.69337 L 110.6001 592.1631 C 110.99762 592.1523 111.28194 592.0932 111.45117 591.98585 C 111.62039 591.87795 111.70745 591.66774 111.71045 591.35597 L 111.71045 587.688 C 111.70745 586.89411 111.52336 586.32324 111.15821 585.97853 C 110.79307 585.63326 110.2732 585.46144 109.60254 585.46144 C 108.93073 585.45844 108.43511 585.64082 108.11426 586.01222 C 107.78943 586.38304 107.62793 586.9102 107.62793 587.59279 L 107.62793 591.35597 C 107.62793 591.67512 107.70613 591.88633 107.86231 591.99025 C 108.01848 592.09479 108.29912 592.1523 108.70459 592.1631 L 108.70459 592.69337 L 105.11865 592.69337 z M 152.99268 592.15871 C 152.48159 591.44829 151.89554 590.91837 151.2334 590.57082 L 151.2334 590.14601 L 152.03467 590.14601 L 152.03467 586.11037 C 152.03467 585.12851 152.53299 584.6382 153.52735 584.6382 C 154.28263 584.6382 154.8934 584.87413 155.36133 585.34718 L 155.21778 585.69142 C 154.90828 585.53074 154.59569 585.44972 154.27881 585.44972 C 153.96193 585.44972 153.7364 585.51352 153.60352 585.64015 C 153.47116 585.76735 153.40577 585.98102 153.40577 586.28029 L 153.40577 590.14601 L 155.05664 590.14601 L 155.05664 590.81544 L 153.40577 590.81544 L 153.40577 592.15871 L 152.99268 592.15871 z M 115.81641 590.94875 L 114.0044 590.36281 L 114.0044 590.08009 L 114.76172 589.59376 L 114.76172 585.90382 C 114.76172 585.738 114.72372 585.6095 114.65039 585.5215 C 114.57599 585.4329 114.49238 585.37375 114.39698 585.34425 C 114.30098 585.31475 114.15147 585.28586 113.94873 585.25636 L 113.94873 584.74806 L 116.9209 584.74806 L 116.9209 585.25636 C 116.63014 585.29666 116.42671 585.35336 116.3086 585.42775 C 116.19108 585.50105 116.13135 585.66077 116.13135 585.90382 L 116.13135 589.45607 C 116.59191 589.77976 117.08531 589.9424 117.61231 589.9424 C 117.94338 589.9424 118.18488 589.866 118.33594 589.71095 C 118.48702 589.55649 118.56299 589.30533 118.56299 588.95949 L 118.56299 585.90382 C 118.55999 585.65679 118.49739 585.49665 118.37989 585.42335 C 118.26177 585.34955 118.05645 585.29266 117.76172 585.25636 L 117.76172 584.74806 L 120.75 584.74806 L 120.75 585.25636 C 120.44789 585.29666 120.23726 585.35336 120.11573 585.42775 C 119.99424 585.50105 119.93262 585.66077 119.93262 585.90382 L 119.93262 589.06935 C 119.93262 590.30733 119.3886 590.92531 118.30225 590.92531 C 117.57991 590.92531 116.85711 590.54826 116.13135 589.79298 L 116.13135 590.94875 L 115.81641 590.94875 z M 139.29346 590.94875 L 137.4917 590.36281 L 137.4917 590.08009 L 138.24903 589.59376 L 138.24903 585.90236 C 138.24903 585.73654 138.21243 585.6101 138.13916 585.5215 C 138.06536 585.4335 137.97968 585.37522 137.88428 585.34572 C 137.78828 585.31622 137.63966 585.28586 137.4375 585.25636 L 137.4375 584.74806 L 140.66455 584.74806 L 140.66455 585.25636 C 140.23353 585.31206 139.95075 585.37307 139.81787 585.43947 C 139.68551 585.50587 139.62012 585.66798 139.62012 585.9258 L 139.62012 588.72072 C 139.92564 589.05577 140.2176 589.27507 140.49756 589.37843 C 140.77753 589.48119 141.11853 589.53371 141.52002 589.53371 L 141.76905 589.53371 L 141.76905 590.78175 C 141.6549 590.87715 141.50724 590.92531 141.32666 590.92531 C 140.97344 590.92931 140.6819 590.80472 140.45362 590.55031 C 140.22533 590.29646 139.94779 589.80912 139.62012 589.09132 L 139.62012 590.94875 L 139.29346 590.94875 z M 123.31348 590.92531 L 121.50147 590.36281 L 121.50147 590.09181 L 122.25879 589.61574 L 122.25879 585.90382 C 122.25879 585.738 122.22219 585.6101 122.14893 585.5215 C 122.07513 585.4335 121.98945 585.37522 121.89405 585.34572 C 121.79805 585.31622 121.64943 585.28586 121.44727 585.25636 L 121.44727 584.74806 L 124.44727 584.74806 L 124.44727 585.25636 C 124.14516 585.29666 123.93306 585.35396 123.81153 585.42775 C 123.69004 585.50105 123.62989 585.6602 123.62989 585.90382 L 123.62989 590.92531 L 123.31348 590.92531 z M 134.28955 590.92531 C 133.47691 590.92531 132.79138 590.61705 132.23145 589.99806 C 131.6755 589.37963 131.39795 588.6091 131.39795 587.688 C 131.39795 586.76008 131.65453 586.01985 132.16846 585.4673 C 132.68296 584.91475 133.36841 584.6382 134.22364 584.6382 C 134.8784 584.6382 135.42562 584.80313 135.86573 585.13478 C 136.30583 585.46642 136.59959 585.91701 136.7461 586.4883 L 136.49854 586.63771 C 136.01982 586.02667 135.41943 585.72072 134.69825 585.72072 C 134.10254 585.72072 133.62665 585.93037 133.27002 586.3506 C 132.91339 586.77026 132.73535 587.32337 132.73535 588.0088 L 136.73584 588.0088 L 136.73584 588.37794 C 136.73584 589.13322 136.52874 589.74645 136.11475 590.21779 C 135.70077 590.6897 135.0914 590.92531 134.28955 590.92531 z M 144.63135 590.92531 C 143.9391 590.92531 143.40418 590.76135 143.02881 590.43312 C 142.65287 590.10488 142.46485 589.67272 142.46485 589.1338 C 142.46485 588.59488 142.61496 588.18385 142.91309 587.90334 C 143.2118 587.62281 143.64985 587.40217 144.22852 587.23976 C 144.80663 587.07735 145.20397 586.91725 145.4209 586.76222 C 145.6384 586.60719 145.74756 586.38411 145.74756 586.09279 C 145.74756 585.8009 145.64996 585.58126 145.45459 585.43361 C 145.25527 585.28593 144.98648 585.21242 144.64746 585.21242 C 143.77067 585.21242 143.22 585.70418 142.99512 586.68605 L 142.41065 586.68605 L 142.47657 585.22267 C 143.01038 584.83254 143.72367 584.6382 144.61524 584.6382 C 145.30749 584.6382 145.85437 584.81124 146.25586 585.15822 C 146.65735 585.50462 146.85791 585.95946 146.85791 586.52052 C 146.85491 587.08159 146.68999 587.49401 146.36573 587.75978 C 146.04204 588.02554 145.5971 588.2361 145.02979 588.39113 C 144.46191 588.54616 144.08053 588.70667 143.88575 588.87306 C 143.68645 589.03888 143.58692 589.25189 143.58692 589.51027 C 143.58692 589.76866 143.67012 589.97298 143.83594 590.12404 C 144.00176 590.27509 144.22828 590.35109 144.51563 590.35109 C 145.27034 590.34709 145.73403 589.92602 145.90723 589.08839 L 146.48291 589.08839 L 146.48291 590.44923 C 145.93377 590.76724 145.31678 590.92531 144.63135 590.92531 z M 149.58106 590.92531 L 147.76905 590.36281 L 147.76905 590.09181 L 148.52637 589.61574 L 148.52637 585.90382 C 148.52637 585.738 148.49027 585.6101 148.41651 585.5215 C 148.34271 585.4335 148.25702 585.37522 148.16162 585.34572 C 148.06562 585.31622 147.91611 585.28586 147.71338 585.25636 L 147.71338 584.74806 L 150.71485 584.74806 L 150.71485 585.25636 C 150.41274 585.29666 150.20064 585.35396 150.07911 585.42775 C 149.95762 585.50105 149.89746 585.6602 149.89746 585.90382 L 149.89746 590.92531 L 149.58106 590.92531 z M 124.72266 590.81544 L 124.72266 590.30714 C 124.96628 590.21574 125.12543 590.14537 125.19873 590.09767 C 125.27253 590.04937 125.33267 589.96865 125.38037 589.85451 L 127.77832 584.66017 L 128.14307 584.66017 L 130.43701 589.85451 C 130.49211 589.97603 130.55226 590.05737 130.61866 590.09767 C 130.68516 590.13797 130.84284 590.20834 131.09326 590.30714 L 131.09326 590.81544 L 128.84473 590.81544 L 128.84473 590.30714 C 129.15025 590.26004 129.35859 590.21124 129.46875 590.16359 C 129.57948 590.11589 129.63575 590.0424 129.63575 589.9424 C 129.63575 589.8436 129.60981 589.71845 129.55811 589.5674 L 128.26465 586.49562 L 127.01075 589.5674 C 126.86646 589.8803 126.89112 590.07899 127.08252 590.16359 C 127.19326 590.21529 127.40724 590.26339 127.72412 590.30714 L 127.72412 590.81544 L 124.72266 590.81544 z M 155.49463 590.81544 L 155.49463 590.30714 C 155.73768 590.21574 155.89544 590.14537 155.96924 590.09767 C 156.04304 590.04937 156.10258 589.96865 156.15088 589.85451 L 158.45069 584.71291 L 158.26758 584.26173 C 158.14606 583.9528 157.9984 583.74982 157.8252 583.65382 C 157.65199 583.55842 157.3779 583.50987 157.00196 583.50587 L 156.38965 583.50587 L 156.38965 582.82472 C 156.58159 582.54475 156.86479 582.40578 157.24073 582.40578 C 157.6161 582.40578 157.91485 582.51305 158.13575 582.72658 C 158.35666 582.94067 158.5582 583.26334 158.74219 583.69777 L 161.2793 589.85451 C 161.3344 589.97603 161.39601 590.05777 161.46241 590.10207 C 161.52831 590.14637 161.68659 590.21574 161.93702 590.30714 L 161.93702 590.81544 L 159.68262 590.81544 L 159.68262 590.30714 C 159.99211 590.26004 160.20233 590.21124 160.3125 590.16359 C 160.41981 590.11589 160.47217 590.04078 160.47217 589.938 C 160.47217 589.83464 160.44338 589.70386 160.38428 589.54542 L 159.11866 586.28615 L 157.78125 589.54542 C 157.63756 589.87309 157.66107 590.07899 157.85303 590.16359 C 157.9632 590.21529 158.17775 590.26339 158.49463 590.30714 L 158.49463 590.81544 L 155.49463 590.81544 z M 134.17383 590.313 C 134.57078 590.313 134.87395 590.15724 135.0835 589.84718 C 135.29304 589.53655 135.39844 589.11513 135.39844 588.58302 L 132.76758 588.58302 C 132.81188 589.07027 132.95822 589.48071 133.2041 589.81349 C 133.45396 590.1457 133.77688 590.313 134.17383 590.313 z " />
        <path d="m 96.312264,584.64046 h -0.784243 v 25.71248 h 0.784243 z" style="fill:#cdcdc8" id="path206" />
      </g>
    </g>
  </g>
</svg>
