<svg xmlns="http://www.w3.org/2000/svg" width="248" height="42.511" viewBox="0 0 248 42.511">
 <g transform="matrix(1.3333 0 0 -1.3333 -159.66 534.36)">
  <path d="m170.6 400c-10.327-0.23414-16.868-5.3011-16.868-16.548 0-6.9114 4.1352-13.825 16.103-13.825 3.7658 0 8.0658 0.54823 11.42 2.2148 0.27675 0.13446 0.32463 1.1871 1.1997 4.6626 0.18499 0.73017 0.5857 2.0874 0.27979 2.4228-0.416 0.45516-0.99042-1.05-1.6157-2.7466-1.3868-3.7466-6.482-4.5762-9.1421-4.5762-7.4236 0-10.342 7.2405-10.342 13.273 0 8.4144 4.2947 13.157 10.787 13.132 2.1405-0.00958 5.3041-1.0671 6.5713-2.0083 0.26283-0.19364 1.267-2.8268 1.478-3.3838 0.41513-1.0944 0.83062-2.3326 1.3389-2.5576 0.80586-0.36552 0.15355 2.3595 0.02344 3.4966l-0.54932 4.7827c-2.7345 1.0222-5.6534 1.5361-8.5693 1.6436-0.72128 0.02695-1.4268 0.03319-2.1152 0.01758zm124.66-0.27246c-6.0525 0-12.072-3.8773-12.072-10.79 0-4.5717 3.322-6.9862 7.2744-7.7168l2.0317-0.40136c0.92425-0.18058 2.4064-0.40969 2.6118-1.7095 0.27676-1.7393-0.73934-2.2866-2.8154-2.2383-2.3228 0.04874-4.7819 1.2938-6.5947 2.7598l-0.51562 0.43945-2.9531-7.7373c3.1366-1.6814 7.2028-2.6704 10.711-2.6704 6.0181 0 12.073 3.4408 12.073 10.39 0 4.935-3.0994 7.3491-7.3843 8.3364l-2.291 0.54785c-0.77239 0.18537-2.0288 0.55087-2.3086 1.4194-0.64966 2.04 1.3764 2.4999 2.2632 2.4668 2.6962-0.09791 4.828-1.5092 6.2344-2.5122l2.5635 6.8555c-2.7314 1.7584-5.6455 2.5606-8.8286 2.5606zm-174.25-0.41162c-0.83418 0.04221-0.36767-0.61524-0.36767-0.61524l2.77-1.0283c0.92034-0.32244 0.62549-0.24803 0.62549-2.9912v-15.727c0-9.3283 10.862-9.3281 11.968-9.3281 2.3267 0 14.265-0.26281 14.265 11.357l0.01172 14.858c0 1.6005 9.8e-4 1.2346 1.4766 1.8721l2.2617 0.95947c0.41644 0.48214-0.18311 0.59912-0.18311 0.59912-6.9032-0.57658-9.6738-0.06885-9.6738-0.06885s-0.78345-0.15992-0.13769-0.73388l1.9146-0.66211c1.2955-0.54829 1.4792-0.13604 1.3887-1.582l-0.01465-15.363c0-1.61-0.07799-8.855-8.5386-8.855-6.1304 0-8.1079 4.7071-8.1079 8.5108l-0.05274 15.507c0.04743 1.7832-0.18611 1.1878 1.5688 1.9658l2.2148 0.64161c0.43863 0.47997-0.22998 0.64013-0.22998 0.64013-7.6177-0.55047-10.896-0.06875-13.159 0.04395zm66.444-0.06153v-29.139l12.891-0.01611c8.2378 0 14.106 5.5229 14.106 14.156 0 10.715-7.199 14.999-16.619 14.999h-10.378zm35.931-0.00146-9.6328-29.153h10.711l0.81152 3.6606h7.645l1.0151-3.6606h10.714l-10.03 29.153h-11.234zm15.374 0 10.746-29.153h8.5679l10.784 29.153h-10.56l-4.5073-17.593-4.5088 17.593h-10.522zm31.159 0v-29.153h10.131v29.153h-10.131zm-40.802-8.4141c0.18711-1.2415 2.0303-10.163 2.0303-10.163h-4.0488l2.0186 10.163zm-31.466-0.16407h0.64453c3.731 0 5.9648-2.2854 5.9648-6.3823 0-3.8036-2.5193-5.8228-5.9165-5.8228h-0.69287v12.205z" fill="#ffbf00"/>
 </g>
</svg>