<?xml version="1.0" encoding="UTF-8" standalone="no"?>
<!-- Created with Inkscape (http://www.inkscape.org/) -->

<svg
   version="1.1"
   id="svg1"
   width="331.58667"
   height="171.86667"
   viewBox="0 0 331.58667 171.86667"
   xmlns="http://www.w3.org/2000/svg"
   xmlns:svg="http://www.w3.org/2000/svg">
  <defs
     id="defs1" />
  <g
     id="g1">
    <g
       id="group-R5">
      <path
         id="path2"
         d="m 700.344,1261.04 c -60.008,-4 -83.008,-18 -88.008,-59 -3,-27 -5,-70.01 -5,-162.01 v -83.01 c 0,-118.008 -18,-203.012 -76.008,-264.016 -46,-48 -113.004,-69.004 -179.008,-69.004 -58.004,0 -116.007,14 -160.011,48.004 -60.004,46 -88,121.008 -88,238.012 v 250.014 c 0,90.01 -8.0043,94.01 -87.0082,101.01 v 28 H 276.313 v -28 c -79.004,-5 -87,-11 -87,-101.01 V 932.02 C 189.313,771.008 253.316,679 377.32,679 c 144.008,0 189.012,120.012 189.012,285.02 v 76.01 c 0,92 -3.004,134.01 -7,165.01 -6.004,39 -27.004,51 -97.008,56 v 28 h 238.02 v -28"
         style="fill:#231f20;fill-opacity:1;fill-rule:nonzero;stroke:none"
         transform="matrix(0.13333333,0,0,-0.13333333,0,171.86667)" />
      <path
         id="path3"
         d="m 1218.33,639 v 28.004 c 81.01,8 85.01,13 84.01,119.004 l -3,408.032 h -4 L 1051.32,646.004 h -20 L 807.309,1180.04 h -2 l -15,-285.024 c -4,-82.004 -4,-126.004 -3,-166.008 2,-48.004 26.004,-55.008 92.004,-62.004 V 639 H 646.301 v 28.004 c 58,6.996 78.008,18 85.004,60.004 5,35 11,79.004 19.004,183.008 l 14,208.014 c 8.996,130.01 3.996,134.01 -87.008,143.01 v 28 h 164.012 l 228.017,-500.028 231.01,500.028 h 170.01 v -28 c -88.01,-8 -95.01,-10 -92.01,-113 l 10,-362.032 c 3,-106.004 6.01,-111.004 93.01,-119.004 V 639 h -263.02"
         style="fill:#231f20;fill-opacity:1;fill-rule:nonzero;stroke:none"
         transform="matrix(0.13333333,0,0,-0.13333333,0,171.86667)" />
      <path
         id="path4"
         d="m 1706.32,879.016 c -21.01,-11 -69.01,-32 -90.01,-42 -39.01,-18.004 -61,-37.004 -61,-73.004 0,-52.008 40,-77.008 71,-77.008 26,1 61,18.004 80.01,36 z m 73,-252.016 c -15,0 -36,9.004 -47.01,19.004 -12.99,14 -18.99,27.996 -23.99,45 C 1668.31,664 1620.31,627 1590.31,627 c -71,0 -120.01,59.004 -120.01,122.008 0,49.004 26,80.004 81.01,99.008 60,20 133.01,47 155.01,65.004 v 18 c 0,72 -34.01,113 -84.01,113 -20.01,0 -35.01,-7.99 -45.01,-20 -12.99,-13 -21.99,-35 -30,-66 -3.99,-16 -15,-23.004 -28.99,-23.004 -18.01,0 -44.01,20.004 -44.01,43.004 0,15.003 13,26 32,40 28.01,20 93.01,59.01 150.01,70.01 30.01,0 60.01,-9 82.01,-27 35,-29.01 45,-70.007 45,-122.01 V 753.012 c 0,-45.008 18,-60.008 35,-60.008 12,0 26.01,5 36.01,11.004 l 10,-26.004 L 1779.32,627"
         style="fill:#231f20;fill-opacity:1;fill-rule:nonzero;stroke:none"
         transform="matrix(0.13333333,0,0,-0.13333333,0,171.86667)" />
      <path
         id="path5"
         d="m 2118.31,958.02 c -18.99,59 -54,99.01 -103,99.01 -38.01,0 -65.01,-30.01 -65.01,-69.007 0,-45.003 40,-68.007 85.01,-87.003 75,-31.004 126.01,-67.008 126.01,-136.012 C 2161.32,674 2076.31,627 1996.31,627 c -51.01,0 -97.01,19.004 -115.01,34.004 -7,14 -16,82 -16,118.008 l 26,5 c 18.01,-66.008 63.01,-124.008 123.01,-124.008 37,0 71,28 71,70.004 0,44.004 -29,68.004 -79,91.004 -60,28.004 -125.01,61.004 -125.01,138.008 0,70 60.01,129.01 152.01,129.01 41.01,0 68.01,-9 89,-17 8,-23.01 19.01,-82.01 22.01,-107.01 l -26.01,-6"
         style="fill:#231f20;fill-opacity:1;fill-rule:nonzero;stroke:none"
         transform="matrix(0.13333333,0,0,-0.13333333,0,171.86667)" />
      <path
         id="path6"
         d="m 2432.31,958.02 c -18.99,59 -54,99.01 -102.99,99.01 -38.01,0 -65.01,-30.01 -65.01,-69.007 0,-45.003 40,-68.007 85.01,-87.003 75,-31.004 126,-67.008 126,-136.012 C 2475.32,674 2390.31,627 2310.31,627 c -51,0 -97.01,19.004 -115.01,34.004 -7,14 -15.99,82 -15.99,118.008 l 25.99,5 c 18.01,-66.008 63.01,-124.008 123.01,-124.008 37,0 71.01,28 71.01,70.004 0,44.004 -29.01,68.004 -79.01,91.004 -60,28.004 -125.01,61.004 -125.01,138.008 0,70 60.01,129.01 152.01,129.01 41.01,0 68.01,-9 89.01,-17 8,-23.01 19,-82.01 22,-107.01 l -26.01,-6"
         style="fill:#231f20;fill-opacity:1;fill-rule:nonzero;stroke:none"
         transform="matrix(0.13333333,0,0,-0.13333333,0,171.86667)" />
      <path
         id="path7"
         d="m 243.367,429.43 h -1.57 C 216.676,361.91 191.555,293.609 168.004,229.238 H 312.457 Z M 320.305,9.42188 V 31.3984 c 49.461,6.2813 56.527,12.5625 46.316,43.1836 -10.203,30.617 -25.902,73.008 -43.176,120.906 H 156.227 C 143.668,160.148 131.891,127.18 121.684,94.2109 104.414,44.75 111.48,36.8984 170.355,31.3984 V 9.42188 H 0 V 31.3984 c 49.457,7.0625 60.4492,11.7813 87.9258,80.8636 l 162.5082,412.16 24.336,7.07 C 323.445,396.461 376.047,247.289 426.289,110.691 451.41,43.1797 461.617,36.1094 512.645,31.3984 V 9.42188 h -192.34"
         style="fill:#820b27;fill-opacity:1;fill-rule:nonzero;stroke:none"
         transform="matrix(0.13333333,0,0,-0.13333333,0,171.86667)" />
      <path
         id="path8"
         d="M 937.324,9.42188 V 29.832 c 46.324,4.7188 54.957,7.8477 54.957,63.5899 V 224.531 c 0,55.739 -19.625,91.063 -69.09,91.063 -28.257,0 -58.089,-15.696 -87.921,-40.824 1.566,-9.418 2.351,-18.051 2.351,-32.969 V 88.7109 c 0,-49.4609 7.067,-54.1601 50.246,-58.8789 V 9.42188 H 719.863 V 29.832 c 48.672,4.7188 55.742,8.6289 55.742,60.4493 V 225.309 c 0,58.101 -20.414,90.285 -68.3,90.285 -31.407,0 -62.024,-21.192 -85.575,-40.824 V 90.2813 c 0,-51.0313 6.282,-55.7305 44.75,-60.4493 V 9.42188 H 500.828 V 29.832 c 51.817,4.7188 58.883,9.418 58.883,60.4493 V 252.789 c 0,50.246 -2.356,54.172 -47.891,61.242 v 18.055 c 34.543,6.281 74.582,16.484 109.125,32.187 V 300.68 c 16.489,10.988 33.758,25.117 57.313,40.039 20.41,12.558 39.254,21.191 64.375,21.191 37.68,0 71.437,-23.543 87.137,-64.375 22.769,17.278 45.539,32.188 65.164,43.965 16.488,10.996 36.898,20.41 58.879,20.41 61.237,0 99.707,-43.172 99.707,-120.109 V 90.2813 c 0,-52.6016 6.27,-55.7305 51.03,-60.4493 V 9.42188 H 937.324"
         style="fill:#820b27;fill-opacity:1;fill-rule:nonzero;stroke:none"
         transform="matrix(0.13333333,0,0,-0.13333333,0,171.86667)" />
      <path
         id="path9"
         d="M 1330.59,9.42188 V 29.832 c 45.53,4.7188 51.81,9.418 51.81,60.4493 V 220.602 c 0,64.378 -24.33,96.562 -76.93,96.562 -29.84,0 -59.66,-14.91 -81.65,-40.035 V 90.2813 c 0,-50.2422 3.93,-55.7305 50.25,-60.4493 V 9.42188 H 1107.63 V 29.832 c 47.11,3.9297 54.17,8.6289 54.17,60.4493 V 464.758 c 0,49.457 -1.57,53.383 -53.38,58.094 v 18.058 c 37.68,5.492 84.78,18.059 115.4,27.477 V 304.605 c 27.48,28.262 69.87,57.305 112.26,57.305 63.6,0 108.34,-40.039 108.34,-134.238 V 90.2813 c 0,-51.8204 5.5,-56.5196 51.82,-60.4493 V 9.42188 h -165.65"
         style="fill:#820b27;fill-opacity:1;fill-rule:nonzero;stroke:none"
         transform="matrix(0.13333333,0,0,-0.13333333,0,171.86667)" />
      <path
         id="path10"
         d="m 1537.04,236.309 c 43.96,0 87.14,0.781 132.67,2.351 14.13,0 18.84,4.711 18.84,15.699 0.79,40.825 -25.9,78.508 -69.09,78.508 -36.11,0 -70.65,-32.969 -82.42,-96.558 z M 1752.14,76.1484 C 1702.69,14.1289 1648.52,0 1624.18,0 c -96.57,0 -153.09,78.5 -153.09,167.219 0,54.16 19.62,102.051 51.81,137.386 32.19,36.114 74.58,57.305 115.41,57.305 65.16,0 117.75,-58.094 117.75,-119.332 0,-15.699 -3.92,-21.976 -18.05,-25.109 -13.34,-2.367 -111.48,-10.219 -204.9,-13.348 0.78,-106.7694 62.02,-150.7304 116.98,-150.7304 31.39,0 61.23,12.5508 89.49,39.2383 l 12.56,-16.4805"
         style="fill:#820b27;fill-opacity:1;fill-rule:nonzero;stroke:none"
         transform="matrix(0.13333333,0,0,-0.13333333,0,171.86667)" />
      <path
         id="path11"
         d="m 1888.7,278.699 c 23.56,39.258 57.32,83.211 95,83.211 26.69,0 45.53,-20.41 45.53,-39.246 0,-15.703 -10.21,-31.406 -25.12,-38.465 -9.42,-3.929 -16.48,-3.148 -21.2,1.563 -10.99,11.773 -20.41,16.492 -32.97,16.492 -20.41,0 -45.54,-23.555 -62.8,-67.524 V 91.0703 c 0,-51.8203 3.92,-56.5195 64.37,-61.2383 V 9.42188 H 1770.95 V 29.832 c 48.67,4.7188 54.17,9.418 54.17,61.2383 V 253.57 c 0,51.817 -3.93,54.961 -48.67,61.243 v 17.273 c 38.46,6.281 73,15.695 110.69,32.187 v -85.574 h 1.56"
         style="fill:#820b27;fill-opacity:1;fill-rule:nonzero;stroke:none"
         transform="matrix(0.13333333,0,0,-0.13333333,0,171.86667)" />
      <path
         id="path12"
         d="m 2234.91,259.859 c -14.92,46.321 -42.39,77.715 -80.86,77.715 -29.83,0 -51.03,-23.543 -51.03,-54.164 0,-35.328 31.4,-53.379 66.73,-68.308 58.88,-24.332 98.92,-52.59 98.92,-106.762 C 2268.67,36.8984 2201.93,0 2139.13,0 c -40.04,0 -76.15,14.9219 -90.28,26.6992 -5.49,10.9805 -12.56,64.3711 -12.56,92.6328 l 20.41,3.93 c 14.13,-51.8206 49.46,-97.3518 96.56,-97.3518 29.05,0 55.74,21.9804 55.74,54.9609 0,34.5389 -22.76,53.3789 -62.02,71.4299 -47.1,21.98 -98.13,47.89 -98.13,108.34 0,54.953 47.11,101.269 119.33,101.269 32.19,0 53.38,-7.058 69.87,-13.34 6.29,-18.054 14.92,-64.371 17.27,-84 l -20.41,-4.711"
         style="fill:#820b27;fill-opacity:1;fill-rule:nonzero;stroke:none"
         transform="matrix(0.13333333,0,0,-0.13333333,0,171.86667)" />
      <path
         id="path13"
         d="M 2433.52,10.1992 C 2420.17,3.14063 2407.61,0 2400.54,0 2351.08,0 2323.6,31.3984 2323.6,93.4219 V 321.871 h -54.17 l -3.13,7.852 21.19,22.773 h 36.11 v 57.305 l 51.04,51.816 10.99,-1.57 V 352.496 h 88.71 c 7.07,-7.851 4.71,-25.125 -4.71,-30.625 h -84 V 120.109 c 0,-63.5895 25.9,-75.359 45.53,-75.359 19.62,0 37.68,7.8398 48.67,13.3398 l 7.06,-20.4101 -53.37,-27.4805"
         style="fill:#820b27;fill-opacity:1;fill-rule:nonzero;stroke:none"
         transform="matrix(0.13333333,0,0,-0.13333333,0,171.86667)" />
    </g>
  </g>
</svg>
